{"title":"Girl in the Park.2007.SWESUB.DVDRip.XviD-Zen_Bud","uid":5536502,"size":734011392,"categoryP":"video","categoryS":"movies","magnet":"?xt=urn:btih:e7be584f441572622d1990d59dc79f86a945a1dc&amp;dn=Girl+in+the+Park.2007.SWESUB.DVDRip.XviD-Zen_Bud&amp;tr=udp%3A%2F%2Ftracker.openbittorrent.com%3A80&amp;tr=udp%3A%2F%2Fopen.demonii.com%3A1337&amp;tr=udp%3A%2F%2Ftracker.coppersurfer.tk%3A6969&amp;tr=udp%3A%2F%2Fexodus.desync.com%3A6969","seeders":1,"leechers":2,"uploader":"Zen_Bud","files":-1,"time":1273086876,"description":"General\nComplete name                    : Girl in the Park.avi\nFormat                           : AVI\nFile size                        : 700 MiB\nDuration                         : 1h 45mn\nOverall bit rate                 : 926 Kbps\nWriting application              : VirtualDubMod 1.5.4.1 (build 2178/release)\nWriting library                  : VirtualDubMod build 2178/release\n\nVideo\nID                               : 0\nFormat                           : MPEG-4 Visual\nCodec ID/Hint                    : XviD\nDuration                         : 1h 45mn\nBit rate                         : 803 Kbps\nWidth                            : 704 pixels\nHeight                           : 304 pixels\nDisplay aspect ratio             : 2.35:1\nResolution                       : 8 bits\nColorimetry                      : 4:2:0\nStream size                      : 607 MiB (87%)\nWriting library                  : XviD 1.3.0.dev55\n\nAudio\nID                               : 1\nFormat                           : MPEG Audio\nMode                             : Joint stereo\nCodec ID/Hint                    : MP3\nDuration                         : 1h 45mn\nBit rate                         : 110 Kbps\nNominal bit rate                 : 128 Kbps\nChannel(s)                       : 2 channels\nSampling rate                    : 48.0 KHz\nStream size                      : 83.0 MiB (12%)\nWriting library                  : LAME3.98r\nLanguage                         : English\n\n","torrent":{"xt":"urn:btih:e7be584f441572622d1990d59dc79f86a945a1dc","amp;dn":"Girl+in+the+Park.2007.SWESUB.DVDRip.XviD-Zen_Bud","amp;tr":["udp%3A%2F%2Ftracker.openbittorrent.com%3A80","udp%3A%2F%2Fopen.demonii.com%3A1337","udp%3A%2F%2Ftracker.coppersurfer.tk%3A6969","udp%3A%2F%2Fexodus.desync.com%3A6969"],"infoHash":"e7be584f441572622d1990d59dc79f86a945a1dc","infoHashBuffer":{"type":"Buffer","data":[231,190,88,79,68,21,114,98,45,25,144,213,157,199,159,134,169,69,161,220]},"announce":[],"urlList":[]}}